<?xml version="1.0" encoding="utf-8"?>
<!-- Generator: Adobe Illustrator 25.2.3, SVG Export Plug-In . SVG Version: 6.00 Build 0)  -->
<svg version="1.1" id="Medium" xmlns="http://www.w3.org/2000/svg" xmlns:xlink="http://www.w3.org/1999/xlink" x="0px" y="0px"
	 viewBox="0 0 64 64" style="enable-background:new 0 0 64 64;" xml:space="preserve">
<style type="text/css">
	.st0{fill:#CC3322;}
	.st1{fill:#D5850B;}
</style>
<path class="st0" d="M32,44L32,44c2.2,0,4-1.8,4-4V9c0-2.2-1.8-4-4-4l0,0c-2.2,0-4,1.8-4,4v31C28,42.2,29.8,44,32,44z"/>
<path class="st0" d="M49.6,26.6L49.6,26.6c1.6-1.6,1.6-4.1,0-5.7L34.8,6.2c-1.6-1.6-4.1-1.6-5.7,0l0,0c-1.6,1.6-1.6,4.1,0,5.7
	l14.8,14.8C45.5,28.2,48,28.2,49.6,26.6z"/>
<path class="st0" d="M14.2,26.6L14.2,26.6c-1.6-1.6-1.6-4.1,0-5.7L29,6.2c1.6-1.6,4.1-1.6,5.7,0l0,0c1.6,1.6,1.6,4.1,0,5.7
	L19.9,26.6C18.3,28.2,15.8,28.2,14.2,26.6z"/>
<circle class="st1" cx="32" cy="55" r="4"/>
<path class="st0" d="M32,59L32,59c2.2,0,4-1.8,4-4v-4c0-2.2-1.8-4-4-4l0,0c-2.2,0-4,1.8-4,4v4C28,57.2,29.8,59,32,59z"/>
</svg>
