<?xml version="1.0" encoding="utf-8"?>
<!-- Generator: Adobe Illustrator 25.2.3, SVG Export Plug-In . SVG Version: 6.00 Build 0)  -->
<svg version="1.1" id="Medium" xmlns="http://www.w3.org/2000/svg" xmlns:xlink="http://www.w3.org/1999/xlink" x="0px" y="0px"
	 viewBox="0 0 64 64" style="enable-background:new 0 0 64 64;" xml:space="preserve">
<style type="text/css">
	.st0{fill:#B8E1FF;}
</style>
<path class="st0" d="M32,35.8L32,35.8c2.2,0,4-1.8,4-4V12c0-2.2-1.8-4-4-4l0,0c-2.2,0-4,1.8-4,4v19.8C28,34,29.8,35.8,32,35.8z"/>
<path class="st0" d="M49.6,34.4L49.6,34.4c1.6,1.6,1.6,4.1,0,5.7L34.8,54.8c-1.6,1.6-4.1,1.6-5.7,0l0,0c-1.6-1.6-1.6-4.1,0-5.7
	l14.8-14.8C45.5,32.8,48,32.8,49.6,34.4z"/>
<path class="st0" d="M14.2,34.4L14.2,34.4c-1.6,1.6-1.6,4.1,0,5.7L29,54.8c1.6,1.6,4.1,1.6,5.7,0l0,0c1.6-1.6,1.6-4.1,0-5.7
	L19.9,34.4C18.3,32.8,15.8,32.8,14.2,34.4z"/>
</svg>
