<?xml version="1.0" encoding="utf-8"?>
<!-- Generator: Adobe Illustrator 25.2.3, SVG Export Plug-In . SVG Version: 6.00 Build 0)  -->
<svg version="1.1" id="Medium" xmlns="http://www.w3.org/2000/svg" xmlns:xlink="http://www.w3.org/1999/xlink" x="0px" y="0px"
	 viewBox="0 0 64 64" style="enable-background:new 0 0 64 64;" xml:space="preserve">
<style type="text/css">
	.st0{fill:#C5C5C5;}
</style>
<circle class="st0" cx="32" cy="32" r="4"/>
<path class="st0" d="M49.6,29.6L49.6,29.6c1.6-1.6,1.6-4.1,0-5.7L34.8,9.2c-1.6-1.6-4.1-1.6-5.7,0l0,0c-1.6,1.6-1.6,4.1,0,5.7
	l14.8,14.8C45.5,31.2,48,31.2,49.6,29.6z"/>
<path class="st0" d="M14.2,29.6L14.2,29.6c-1.6-1.6-1.6-4.1,0-5.7L29,9.2c1.6-1.6,4.1-1.6,5.7,0l0,0c1.6,1.6,1.6,4.1,0,5.7
	L19.9,29.6C18.3,31.2,15.8,31.2,14.2,29.6z"/>
<path class="st0" d="M49.6,34.4L49.6,34.4c1.6,1.6,1.6,4.1,0,5.7L34.8,54.8c-1.6,1.6-4.1,1.6-5.7,0l0,0c-1.6-1.6-1.6-4.1,0-5.7
	l14.8-14.8C45.5,32.8,48,32.8,49.6,34.4z"/>
<path class="st0" d="M14.2,34.4L14.2,34.4c-1.6,1.6-1.6,4.1,0,5.7L29,54.8c1.6,1.6,4.1,1.6,5.7,0l0,0c1.6-1.6,1.6-4.1,0-5.7
	L19.9,34.4C18.3,32.8,15.8,32.8,14.2,34.4z"/>
</svg>
